<?xml version="1.0" encoding="UTF-8" standalone="no"?>
<!-- Created with Inkscape (http://www.inkscape.org/) -->

<svg
   width="210mm"
   height="297mm"
   viewBox="0 0 210 297"
   version="1.1"
   id="svg5"
   inkscape:version="1.1 (c4e8f9ed74, 2021-05-24)"
   sodipodi:docname="quarter-note.svg"
   xmlns:inkscape="http://www.inkscape.org/namespaces/inkscape"
   xmlns:sodipodi="http://sodipodi.sourceforge.net/DTD/sodipodi-0.dtd"
   xmlns="http://www.w3.org/2000/svg"
   xmlns:svg="http://www.w3.org/2000/svg">
  <sodipodi:namedview
     id="namedview7"
     pagecolor="#ffffff"
     bordercolor="#666666"
     borderopacity="1.0"
     inkscape:pageshadow="2"
     inkscape:pageopacity="0.0"
     inkscape:pagecheckerboard="0"
     inkscape:document-units="mm"
     showgrid="false"
     inkscape:zoom="0.5"
     inkscape:cx="458.79309"
     inkscape:cy="651.14584"
     inkscape:window-width="1680"
     inkscape:window-height="1014"
     inkscape:window-x="0"
     inkscape:window-y="36"
     inkscape:window-maximized="1"
     inkscape:current-layer="layer1" />
  <defs
     id="defs2" />
  <g
     inkscape:label="Layer 1"
     inkscape:groupmode="layer"
     id="layer1">
    <g
       id="g341"
       transform="matrix(1.2181236,-0.17689621,0.27742895,1.2395719,-77.47852,-28.213206)"
       inkscape:transform-center-x="-4.4659504"
       inkscape:transform-center-y="-3.6724177">
      <g
         id="g2267"
         transform="translate(18.683626,2.3491996)">
        <g
           id="g1495"
           transform="matrix(0.79448638,0.00216747,0.00345913,0.77979182,-10.659486,80.40654)">
          <ellipse
             style="fill:#000000;stroke-width:0.264962"
             id="path49"
             ry="62.401073"
             rx="78.987686"
             cy="-204.39435"
             cx="10.54377"
             transform="matrix(-0.85220273,0.52321172,-0.58611256,-0.81022964,0,0)" />
          <path
             style="fill:#000000"
             id="path235"
             sodipodi:type="arc"
             sodipodi:cx="162.56218"
             sodipodi:cy="-150.82436"
             sodipodi:rx="38.670536"
             sodipodi:ry="47.22076"
             sodipodi:start="6.2802934"
             sodipodi:end="6.2802922"
             sodipodi:arc-type="slice"
             d="m 201.23255,-150.96091 a 38.670536,47.22076 0 0 1 -38.55853,47.35712 38.670536,47.22076 0 0 1 -38.78221,-47.08398 38.670536,47.22076 0 0 1 38.5585,-47.35715 38.670536,47.22076 0 0 1 38.78224,47.08395 l -38.67037,0.13661 z"
             transform="matrix(-0.24132686,0.97044389,-0.99628653,-0.08609971,0,0)" />
        </g>
        <rect
           style="fill:#000000;stroke-width:0.235987"
           id="rect1541"
           width="12.541517"
           height="161.08646"
           x="169.83015"
           y="33.478565"
           transform="matrix(0.98997022,0.1412762,-0.22206456,0.97503196,0,0)" />
      </g>
      <path
         style="fill:#000000;stroke-width:2.09006"
         d="m 344.86013,981.18397 c -41.30855,-4.13408 -73.96542,-18.17218 -100.49617,-43.19994 -16.60728,-15.66647 -25.72341,-29.09288 -32.58145,-47.98655 -16.98752,-46.80011 0.10566,-99.53088 45.26535,-139.63908 87.13249,-77.386 238.56359,-62.11216 284.51929,28.69755 36.02582,71.18797 -10.99579,157.19609 -104.10362,190.41799 -28.64433,10.22061 -63.47539,14.62512 -92.6034,11.71003 z"
         id="path102"
         transform="matrix(0.21036831,0.03002114,-0.04708259,0.20672831,56.582076,30.83513)" />
      <path
         style="fill:#000000;stroke-width:0.261258"
         d=""
         id="path141"
         transform="matrix(0.21036831,0.03002114,-0.04708259,0.20672831,56.582076,30.83513)" />
      <path
         style="fill:#000000;stroke-width:0.261258"
         d=""
         id="path180"
         transform="matrix(0.21036831,0.03002114,-0.04708259,0.20672831,56.582076,30.83513)" />
      <path
         style="fill:#000000;stroke-width:0.261258"
         d="m 352.56723,981.65182 c -5.12529,-0.29101 -11.10011,-0.91409 -17.45827,-1.82062 -37.21228,-5.30555 -67.99757,-19.83369 -92.07401,-43.4514 l -3.72292,-3.65198 v -82.06155 -82.06154 l 2.77934,-3.12742 c 3.65816,-4.1163 11.13088,-11.52941 15.37807,-15.25539 12.45885,-10.92994 25.07804,-19.419 40.23368,-27.06563 25.52197,-12.87687 52.67825,-20.12696 82.68805,-22.07577 5.60157,-0.36376 20.39648,-0.36574 25.73388,-0.003 27.36159,1.85725 51.36615,8.02741 73.15215,18.80312 15.76757,7.7989 27.30017,15.95024 38.81996,27.43828 11.87991,11.84716 20.36567,24.26325 26.62417,38.95566 10.77795,25.30229 11.6784,52.91939 2.61446,80.18694 -15.38996,46.29845 -57.7015,85.20432 -112.97325,103.88002 -25.4291,8.59222 -55.77377,12.7883 -81.79531,11.31073 z"
         id="path219"
         transform="matrix(0.21036831,0.03002114,-0.04708259,0.20672831,56.582076,30.83513)" />
      <path
         style="fill:#000000;stroke-width:0.261258"
         d="m 352.56723,981.65182 c -11.89465,-0.6754 -26.25907,-2.88569 -38.0322,-5.85214 -27.71639,-6.98363 -51.76514,-20.18246 -71.09211,-39.01795 l -4.13089,-4.02585 V 850.68794 768.62 l 2.52106,-2.8738 c 3.26722,-3.72435 11.62203,-12.03024 15.69817,-15.60626 19.64601,-17.23552 42.95366,-30.38242 68.83715,-38.82823 17.48286,-5.70468 34.78848,-8.98213 54.02276,-10.23119 5.55239,-0.36057 20.34969,-0.36492 25.73388,-0.008 27.18651,1.80436 51.00903,7.91258 72.89089,18.68963 11.99787,5.90907 21.16918,11.80393 30.71228,19.7403 4.43351,3.68706 13.33545,12.66349 16.89692,17.03833 15.38363,18.89688 24.13109,39.65762 26.49994,62.89349 0.42062,4.12601 0.41952,16.16103 -0.003,20.11684 -2.79488,26.23763 -13.12712,50.19031 -31.10419,72.10712 -12.90132,15.72871 -29.49275,29.72123 -48.4895,40.89403 -4.72377,2.77826 -15.59775,8.35395 -20.63935,10.58295 -22.06715,9.75635 -44.65624,15.52404 -70.01706,17.87752 -9.58674,0.88964 -21.47414,1.14016 -30.30589,0.63867 z"
         id="path258"
         transform="matrix(0.21036831,0.03002114,-0.04708259,0.20672831,56.582076,30.83513)" />
      <path
         style="fill:#000000;stroke-width:0.261258"
         d="M 353.87352,983.0791 C 308.7139,980.28897 270.54731,965.12552 242.38181,938.78385 l -3.06978,-2.871 v -1.32869 -1.32869 l 3.2004,3.1211 c 27.33494,26.65759 60.85217,41.05782 105.22153,45.20704 5.96983,0.55825 23.80508,0.63888 30.04463,0.1358 31.27117,-2.52132 56.19713,-9.01783 81.50328,-21.24242 43.15028,-20.84451 75.19401,-54.76163 88.17671,-93.33184 7.37154,-21.90005 8.3191,-44.40616 2.76225,-65.60802 -9.60788,-36.65844 -37.02092,-67.03221 -76.37243,-84.62097 -19.0817,-8.52886 -38.78779,-13.48641 -62.62882,-15.75579 -6.94055,-0.66066 -29.05862,-0.65893 -36.05356,0.003 -35.73138,3.38033 -66.34123,13.48107 -94.33248,31.12814 -13.89936,8.76285 -28.68371,21.2643 -38.90894,32.90089 l -2.48194,2.82452 -0.0812,-1.08768 c -0.0778,-1.0424 0.0146,-1.19269 2.22069,-3.61037 16.57105,-18.16059 38.24792,-33.65801 62.35198,-44.57721 20.61142,-9.33703 43.63389,-15.67897 66.00674,-18.18272 10.47919,-1.17272 26.0014,-1.63095 35.97076,-1.06188 34.47629,1.96799 65.81929,11.86163 91.52299,28.88989 13.30614,8.81509 24.95277,19.64654 33.9909,31.6118 11.71012,15.50257 19.4486,33.57538 22.30746,52.09788 1.57849,10.22692 1.71121,21.23033 0.38141,31.61961 -2.85173,22.27954 -11.86499,43.79701 -26.59948,63.50121 -7.39372,9.88753 -18.25872,21.14541 -28.53485,29.5667 -29.84884,24.46112 -69.16365,40.61562 -109.83675,45.13206 -2.58645,0.28723 -6.23099,0.65482 -8.09899,0.81688 -3.26112,0.28297 -23.93162,0.54631 -27.17079,0.34619 z"
         id="path297"
         transform="matrix(0.21036831,0.03002114,-0.04708259,0.20672831,56.582076,30.83513)" />
    </g>
  </g>
</svg>
