<?xml version="1.0" encoding="UTF-8" standalone="no"?>
<!-- Created with Inkscape (http://www.inkscape.org/) -->

<svg
   width="210mm"
   height="297mm"
   viewBox="0 0 210 297"
   version="1.1"
   id="svg5"
   inkscape:version="1.1 (c4e8f9ed74, 2021-05-24)"
   sodipodi:docname="sixteenth-note.svg"
   xmlns:inkscape="http://www.inkscape.org/namespaces/inkscape"
   xmlns:sodipodi="http://sodipodi.sourceforge.net/DTD/sodipodi-0.dtd"
   xmlns="http://www.w3.org/2000/svg"
   xmlns:svg="http://www.w3.org/2000/svg">
  <sodipodi:namedview
     id="namedview7"
     pagecolor="#ffffff"
     bordercolor="#666666"
     borderopacity="1.0"
     inkscape:pageshadow="2"
     inkscape:pageopacity="0.0"
     inkscape:pagecheckerboard="0"
     inkscape:document-units="mm"
     showgrid="false"
     inkscape:zoom="0.70710678"
     inkscape:rotation="-40"
     inkscape:cx="494.48053"
     inkscape:cy="616.87883"
     inkscape:window-width="1680"
     inkscape:window-height="1014"
     inkscape:window-x="0"
     inkscape:window-y="36"
     inkscape:window-maximized="1"
     inkscape:current-layer="g341" />
  <defs
     id="defs2" />
  <g
     inkscape:label="Layer 1"
     inkscape:groupmode="layer"
     id="layer1">
    <g
       id="g341"
       transform="matrix(1.2181236,-0.17689621,0.27742895,1.2395719,-70.632494,-14.272826)"
       inkscape:transform-center-x="-4.4659504"
       inkscape:transform-center-y="-3.6724177">
      <g
         id="g2267"
         transform="translate(-5.0673637,-9.6800676)">
        <g
           id="g1495"
           transform="matrix(0.79448638,0.00216747,0.00345913,0.77979182,-10.659486,80.40654)">
          <ellipse
             style="fill:#000000;stroke-width:0.264962"
             id="path49"
             ry="62.401073"
             rx="78.987686"
             cy="-204.39435"
             cx="10.54377"
             transform="matrix(-0.85220273,0.52321172,-0.58611256,-0.81022964,0,0)" />
          <path
             style="fill:#000000"
             id="path235"
             sodipodi:type="arc"
             sodipodi:cx="162.56218"
             sodipodi:cy="-150.82436"
             sodipodi:rx="38.670536"
             sodipodi:ry="47.22076"
             sodipodi:start="6.2802934"
             sodipodi:end="6.2802922"
             sodipodi:arc-type="slice"
             d="m 201.23255,-150.96091 a 38.670536,47.22076 0 0 1 -38.55853,47.35712 38.670536,47.22076 0 0 1 -38.78221,-47.08398 38.670536,47.22076 0 0 1 38.5585,-47.35715 38.670536,47.22076 0 0 1 38.78224,47.08395 l -38.67037,0.13661 z"
             transform="matrix(-0.24132686,0.97044389,-0.99628653,-0.08609971,0,0)" />
        </g>
        <rect
           style="fill:#000000;stroke-width:0.235987"
           id="rect1541"
           width="12.541517"
           height="161.08646"
           x="169.83015"
           y="33.478565"
           transform="matrix(0.98997022,0.1412762,-0.22206456,0.97503196,0,0)" />
      </g>
      <path
         style="fill:#000000;stroke-width:0.261258"
         d=""
         id="path141"
         transform="matrix(0.21036831,0.03002114,-0.04708259,0.20672831,56.582076,30.83513)" />
      <path
         style="fill:#000000;stroke-width:0.261258"
         d=""
         id="path180"
         transform="matrix(0.21036831,0.03002114,-0.04708259,0.20672831,56.582076,30.83513)" />
      <g
         id="g2187"
         transform="translate(-1.7251352,3.474348)">
        <path
           style="fill:none;stroke:#000000;stroke-width:0.265645px;stroke-linecap:butt;stroke-linejoin:miter;stroke-opacity:1"
           d="m 155.92789,105.26751 c 51.80965,83.77228 3.69047,75.15965 3.69047,75.15965"
           id="path674" />
        <path
           style="fill:none;stroke:#000000;stroke-width:0.265645px;stroke-linecap:butt;stroke-linejoin:miter;stroke-opacity:1"
           d="m 155.92789,105.26751 c 40.20985,76.18281 3.69047,75.15965 3.69047,75.15965"
           id="path1613"
           sodipodi:nodetypes="cc" />
      </g>
      <g
         id="g2273"
         transform="matrix(1.1874447,0.0174861,0.02790657,1.0688962,-20.052642,-66.519232)">
        <path
           style="fill:none;stroke:#000000;stroke-width:0.265645px;stroke-linecap:butt;stroke-linejoin:miter;stroke-opacity:1"
           d="m 155.92789,105.26751 c 51.80965,83.77228 3.69047,75.15965 3.69047,75.15965"
           id="path2269" />
        <path
           style="fill:none;stroke:#000000;stroke-width:0.265645px;stroke-linecap:butt;stroke-linejoin:miter;stroke-opacity:1"
           d="m 155.92789,105.26751 c 40.20985,76.18281 3.69047,75.15965 3.69047,75.15965"
           id="path2271"
           sodipodi:nodetypes="cc" />
      </g>
      <path
         style="fill:#000000;fill-opacity:1"
         d="m 686.71568,431.55017 c 24.27238,-8.86557 39.66396,-24.99807 46.51198,-48.75099 2.96047,-10.26863 3.15802,-34.16593 0.391,-47.29918 C 720.8132,274.72071 674.40535,197.30267 594.0402,102.65382 587.34056,94.763414 582.05763,88.109038 582.30035,87.866313 c 0.51377,-0.513773 31.04373,31.387377 50.85586,53.139957 75.87005,83.30092 119.44238,150.97218 129.93152,201.7939 2.93061,14.19932 2.3472,33.04122 -1.32962,42.94138 C 751.70368,412.81399 726.64682,428.518 686.5,432.90842 l -5,0.54679 z"
         id="path4929"
         transform="matrix(0.21036831,0.03002114,-0.04708259,0.20672831,53.61954,19.166229)" />
      <path
         style="fill:#000000;fill-opacity:1"
         d="m 666.5,698.67969 c 13.38997,-5.71943 25.49638,-16.66931 31.70883,-28.67969 16.90691,-32.6857 7.91023,-83.3678 -26.62997,-150.01782 -18.89407,-36.4587 -46.98524,-79.94781 -80.21035,-124.17698 -6.84364,-9.11023 -12.27315,-16.7339 -12.06557,-16.94148 0.20758,-0.20757 5.31758,5.36317 11.35557,12.37943 56.96029,66.18905 94.92635,119.77921 117.78206,166.25267 23.47767,47.73814 28.52707,82.27096 15.89574,108.71105 -4.29802,8.99669 -16.01181,20.11085 -26.59454,25.23319 -9.04218,4.37666 -25.61763,9.09667 -31.62,9.00407 L 662.5,700.38825 Z"
         id="path4968"
         transform="matrix(0.21036831,0.03002114,-0.04708259,0.20672831,53.61954,19.166229)" />
      <path
         style="fill:#000000;fill-opacity:1;stroke-width:0.0883883"
         d="m 582.38169,383.81041 c -1.29128,-1.70555 -6.68553,-8.69107 -9.29446,-12.03628 -1.54901,-1.98614 -2.79863,-3.62891 -2.77695,-3.6506 0.0641,-0.0641 12.78765,14.29859 12.78765,14.43508 0,0.038 -0.83051,-0.7849 -1.84557,-1.82857 -1.01507,-1.04367 -1.86998,-1.87462 -1.89982,-1.84655 -0.0906,0.0852 0.76102,1.43189 2.25168,3.56069 1.40783,2.01052 1.83929,2.7687 0.77747,1.36623 z"
         id="path5007"
         transform="matrix(0.21036831,0.03002114,-0.04708259,0.20672831,53.61954,19.166229)" />
      <path
         style="fill:#000000;fill-opacity:1;stroke-width:0.03125"
         d="M 613.90459,120.24369 C 599.48245,104.87863 586.16792,91.142944 583.0951,88.459644 c -0.55953,-0.488607 -0.75367,-0.631721 -0.7928,-0.584451 -0.11239,0.135743 1.54798,2.387626 4.07628,5.528461 0.33875,0.420818 0.60239,0.759886 0.58588,0.753485 -0.0165,-0.0064 -0.47021,-0.52337 -1.00821,-1.148818 -0.53801,-0.625449 -1.38744,-1.613129 -1.88762,-2.194845 -2.33161,-2.711675 -7.00167,-8.083648 -9.90083,-11.388923 -0.80876,-0.922057 -1.44337,-1.659925 -1.41025,-1.639708 0.0663,0.04048 0.45423,0.426763 3.83984,3.823813 11.34389,11.382229 22.43642,22.784022 33.06512,33.986952 2.27807,2.40114 7.16299,7.58404 7.22811,7.66901 0.0241,0.0315 0.0306,0.0733 0.0144,0.0929 -0.018,0.0217 -0.0498,0.0171 -0.0815,-0.0119 -0.0286,-0.0261 -1.34209,-1.42202 -2.91894,-3.10196 z"
         id="path5046"
         transform="matrix(0.21036831,0.03002114,-0.04708259,0.20672831,53.61954,19.166229)" />
    </g>
  </g>
</svg>
